<svg width="1263" height="442" viewBox="0 0 1263 442" fill="none" xmlns="http://www.w3.org/2000/svg">
<mask id="mask0_733_771" style="mask-type:luminance" maskUnits="userSpaceOnUse" x="434" y="0" width="397" height="442">
<path d="M830.278 0H434.002V442H830.278V0Z" fill="white"/>
</mask>
<g mask="url(#mask0_733_771)">
<mask id="mask1_733_771" style="mask-type:alpha" maskUnits="userSpaceOnUse" x="436" y="9" width="389" height="426">
<path fill-rule="evenodd" clip-rule="evenodd" d="M600.467 109.542L735.757 12.4789C742.944 7.3227 753.073 8.87123 758.379 15.9356L810.218 84.9379C815.525 92.0022 814.002 101.909 806.816 107.065L671.527 204.129C664.341 209.284 654.211 207.736 648.906 200.671L597.067 131.669C591.76 124.605 593.282 114.697 600.467 109.542ZM539.271 29.5141L451.429 34.8074C442.592 35.3394 435.883 42.9128 436.445 51.7223L459.327 410.191C459.889 419.002 467.508 425.712 476.347 425.18L564.189 419.886C573.026 419.354 579.735 411.781 579.173 402.97L556.289 44.501C555.73 35.6914 548.108 28.9822 539.271 29.5141ZM649.359 253.87L605.175 327.707C600.639 335.288 603.188 344.992 610.868 349.38L755.794 432.204C763.475 436.592 773.378 434.006 777.915 426.425L822.098 352.591C826.634 345.01 824.086 335.306 816.406 330.918L671.48 248.093C663.798 243.704 653.894 246.29 649.359 253.87Z" fill="white"/>
</mask>
<g mask="url(#mask1_733_771)">
<path d="M802.364 -152.416H438.185C326.446 -152.416 235.863 -61.8336 235.863 49.9057V414.085C235.863 525.824 326.446 616.406 438.185 616.406H802.364C914.103 616.406 1004.69 525.824 1004.69 414.085V49.9057C1004.69 -61.8336 914.103 -152.416 802.364 -152.416Z" fill="url(#paint0_linear_733_771)"/>
</g>
</g>
<defs>
<linearGradient id="paint0_linear_733_771" x1="286.444" y1="-91.7195" x2="933.873" y2="616.406" gradientUnits="userSpaceOnUse">
<stop offset="0.0416667" stop-color="#2598CC"/>
<stop offset="1" stop-color="#FF0F49"/>
</linearGradient>
</defs>
</svg>
