<svg width="26" height="29" viewBox="0 0 26 29" fill="none" xmlns="http://www.w3.org/2000/svg">
<g clip-path="url(#clip0_719_424)">
<mask id="mask0_719_424" style="mask-type:alpha" maskUnits="userSpaceOnUse" x="0" y="0" width="26" height="29">
<path fill-rule="evenodd" clip-rule="evenodd" d="M10.922 7.18734L19.7985 0.818943C20.27 0.480643 20.9346 0.582243 21.2827 1.04574L24.6839 5.57304C25.0321 6.03654 24.9322 6.68654 24.4607 7.02484L15.5843 13.3933C15.1128 13.7315 14.4482 13.6299 14.1001 13.1664L10.6989 8.63914C10.3507 8.17564 10.4506 7.52554 10.922 7.18734ZM6.90686 1.93664L1.14346 2.28394C0.563663 2.31884 0.123464 2.81574 0.160364 3.39374L1.66166 26.9132C1.69856 27.4913 2.19846 27.9315 2.77836 27.8966L8.54176 27.5493C9.12156 27.5144 9.56176 27.0175 9.52486 26.4394L8.02346 2.91994C7.98676 2.34194 7.48666 1.90174 6.90686 1.93664ZM14.1298 16.6568L11.2309 21.5013C10.9333 21.9987 11.1005 22.6354 11.6044 22.9233L21.1131 28.3575C21.6171 28.6454 22.2668 28.4757 22.5645 27.9783L25.4634 23.134C25.761 22.6366 25.5938 21.9999 25.0899 21.712L15.5812 16.2778C15.0772 15.9898 14.4274 16.1595 14.1298 16.6568Z" fill="white"/>
</mask>
<g mask="url(#mask0_719_424)">
<path d="M24.1686 -10H0.2745C-7.05681 -10 -13 -4.05681 -13 3.2745V27.1686C-13 34.4999 -7.05681 40.4431 0.2745 40.4431H24.1686C31.4999 40.4431 37.4431 34.4999 37.4431 27.1686V3.2745C37.4431 -4.05681 31.4999 -10 24.1686 -10Z" fill="url(#paint0_linear_719_424)"/>
</g>
</g>
<defs>
<linearGradient id="paint0_linear_719_424" x1="-9.68138" y1="-6.01765" x2="32.797" y2="40.4431" gradientUnits="userSpaceOnUse">
<stop offset="0.0416667" stop-color="#2598CC"/>
<stop offset="1" stop-color="#FF0F49"/>
</linearGradient>
<clipPath id="clip0_719_424">
<rect width="26" height="29" fill="white"/>
</clipPath>
</defs>
</svg>
